<?xml version="1.0" encoding="UTF-8"?>
<svg width="920px" height="177px" viewBox="0 0 920 177" version="1.1" xmlns="http://www.w3.org/2000/svg" xmlns:xlink="http://www.w3.org/1999/xlink">
    <!-- Generator: Sketch 55.2 (78181) - https://sketchapp.com -->
    <title>A11yJSON logo</title>
    <desc>Created with Sketch.</desc>
    <g id="A11yJSON-logo" stroke="none" stroke-width="1" fill="none" fill-rule="evenodd">
        <g fill="#39404C" fill-rule="nonzero">
            <g id="A11yJSON-icon" transform="translate(0.448002, 0.388629)">
                <path d="M113.782361,91.0275968 C113.808045,85.4723275 114.286577,79.2481432 115.22188,72.3614823 C123.402066,71.4899581 133.06601,69.9826454 144.235176,67.8430302 C147.103457,67.2935691 148.983233,64.522942 148.433772,61.6546609 C147.884311,58.7863797 145.113684,56.9066042 142.245403,57.4560647 C124.034692,60.9445904 110.088665,62.6805315 100.509847,62.6805315 C90.910029,62.6805315 76.2135554,60.9393612 56.5405143,57.443205 C53.6651309,56.932212 50.9199303,58.8489289 50.4089372,61.7243122 C49.8979442,64.5996961 51.8146611,67.3448968 54.6900444,67.8558898 C66.4440737,69.9447342 76.5107231,71.4291772 84.9135359,72.3065102 C85.8803606,79.4104457 86.3616218,85.8101826 86.3616218,91.4986635 C86.3616218,94.5155229 85.8280594,99.3596504 84.7620852,105.982739 C84.4825744,106.693729 84.3679758,107.435448 84.4029897,108.161679 C83.2078799,115.256295 81.4662861,124.17203 79.1794061,134.858631 C78.5682837,137.71441 80.3879372,140.524889 83.2437156,141.136012 C86.0994945,141.747134 88.909974,139.92748 89.5210964,137.071701 C91.8807915,126.044834 93.67656,116.85659 94.9095906,109.457053 C95.9928694,107.955815 97.6904741,107.254723 100.562569,107.254723 C103.529506,107.254723 104.711672,108.087729 105.379396,110.40535 C105.389366,110.439955 105.399659,110.474381 105.41027,110.508623 C106.635796,117.721386 108.372627,126.561337 110.621793,137.071701 C111.232916,139.92748 114.043395,141.747134 116.899174,141.136012 C119.754953,140.524889 121.574606,137.71441 120.963483,134.858631 C116.237965,112.776259 113.840734,98.2552173 113.782361,91.7388708 L113.782361,91.0275968 Z M100.562569,57.361631 C107.863658,57.361631 113.782361,51.442929 113.782361,44.1418399 C113.782361,36.8407507 107.863658,30.9220488 100.562569,30.9220488 C93.2614803,30.9220488 87.3427783,36.8407507 87.3427783,44.1418399 C87.3427783,51.442929 93.2614803,57.361631 100.562569,57.361631 Z" id="Da-Vinci-Person"></path>
                <path d="M29.7215132,142.730385 L39.4765715,142.730385 C54.1610107,158.45654 75.078345,168.287941 98.291926,168.287941 C121.505507,168.287941 142.422841,158.45654 157.10728,142.730385 L166.862339,142.730385 C150.765352,162.811107 126.030199,175.668991 98.291926,175.668991 C70.5536532,175.668991 45.8185002,162.811107 29.7215132,142.730385 Z M30.158167,32.3982588 C46.2639155,12.6275148 70.8032637,0 98.291926,0 C125.780588,0 150.319936,12.6275148 166.425685,32.3982588 L156.598068,32.3982588 C141.941314,16.9875714 121.238482,7.38105004 98.291926,7.38105004 C75.3453702,7.38105004 54.6425378,16.9875714 39.985784,32.3982588 L30.158167,32.3982588 Z" id="Oval"></path>
                <g id="Braces" transform="translate(0.000000, 38.489322)">
                    <path d="M155.215663,91.9919148 L160.99348,91.9919148 C172.549115,91.9919148 175.154797,89.1596514 175.154797,81.7957666 C175.154797,74.885044 174.475054,68.9939361 174.475054,61.2901797 C174.475054,53.9262949 176.854155,50.3009978 184.671202,48.9415113 L184.671202,48.4883492 C176.854155,47.1288628 174.475054,43.5035656 174.475054,36.1396808 C174.475054,29.1156676 175.154797,22.0916544 175.154797,15.6340939 C175.154797,8.27020909 172.549115,5.4379457 160.99348,5.4379457 L155.215663,5.4379457 L155.215663,0 L162.126385,0 C176.287702,0 182.971844,3.39871607 182.971844,15.0676412 C182.971844,22.8846882 181.952229,29.7954108 181.952229,36.9327146 C181.952229,41.3510455 185.011073,45.6560858 198.379357,45.7693763 L198.379357,51.6604842 C185.011073,51.7737747 181.952229,56.0788151 181.952229,60.497146 C181.952229,68.0876118 182.971844,74.0920102 182.971844,82.3622193 C182.971844,94.0311445 176.287702,97.4298605 162.126385,97.4298605 L155.215663,97.4298605 L155.215663,91.9919148 Z" id="Path"></path>
                    <path d="M0.213611763,91.9919148 L5.99142907,91.9919148 C17.5470637,91.9919148 20.152746,89.1596514 20.152746,81.7957666 C20.152746,74.885044 19.4730028,68.9939361 19.4730028,61.2901797 C19.4730028,53.9262949 21.852104,50.3009978 29.669151,48.9415113 L29.669151,48.4883492 C21.852104,47.1288628 19.4730028,43.5035656 19.4730028,36.1396808 C19.4730028,29.1156676 20.152746,22.0916544 20.152746,15.6340939 C20.152746,8.27020909 17.5470637,5.4379457 5.99142907,5.4379457 L0.213611763,5.4379457 L0.213611763,0 L7.12433443,0 C21.2856514,0 27.969793,3.39871607 27.969793,15.0676412 C27.969793,22.8846882 26.9501781,29.7954108 26.9501781,36.9327146 C26.9501781,41.3510455 30.0090226,45.6560858 43.3773058,45.7693763 L43.3773058,51.6604842 C30.0090226,51.7737747 26.9501781,56.0788151 26.9501781,60.497146 C26.9501781,68.0876118 27.969793,74.0920102 27.969793,82.3622193 C27.969793,94.0311445 21.2856514,97.4298605 7.12433443,97.4298605 L0.213611763,97.4298605 L0.213611763,91.9919148 Z" id="Path-Copy" transform="translate(21.795459, 48.714930) scale(-1, 1) translate(-21.795459, -48.714930) "></path>
                </g>
            </g>
            <path d="M279.76409,90.5571107 L311.171934,90.5571107 L306.229583,74.6140427 C302.562677,62.975603 299.214633,51.4965939 295.866589,39.3798622 L295.228866,39.3798622 C291.880821,51.4965939 288.532777,62.975603 284.865872,74.6140427 L279.76409,90.5571107 Z M324.564111,133.125103 L314.519978,101.238966 L276.416045,101.238966 L266.371913,133.125103 L252.820305,133.125103 L288.213916,28.5385759 L303.2004,28.5385759 L338.594011,133.125103 L324.564111,133.125103 Z M351.173092,133.125103 L351.173092,122.283816 L374.449971,122.283816 L374.449971,47.3513962 L355.956012,47.3513962 L355.956012,38.9015701 C365.202992,37.3072633 371.89908,34.7563724 377.479154,31.4083281 L387.523287,31.4083281 L387.523287,122.283816 L408.568137,122.283816 L408.568137,133.125103 L351.173092,133.125103 Z M430.394197,133.125103 L430.394197,122.283816 L453.671076,122.283816 L453.671076,47.3513962 L435.177117,47.3513962 L435.177117,38.9015701 C444.424097,37.3072633 451.120186,34.7563724 456.700259,31.4083281 L466.744392,31.4083281 L466.744392,122.283816 L487.789242,122.283816 L487.789242,133.125103 L430.394197,133.125103 Z M504.832382,154.488814 C506.426689,154.967106 508.818149,155.604829 510.731317,155.604829 C519.500005,155.604829 525.080078,148.589879 528.268692,139.024038 L530.02243,133.284533 L498.933447,55.6417916 L512.485055,55.6417916 L528.268692,98.5286448 C530.660152,105.224733 533.370474,113.196267 535.761934,120.370648 L536.399657,120.370648 C538.631686,113.355698 540.863716,105.384164 542.936315,98.5286448 L556.806784,55.6417916 L569.561238,55.6417916 L540.385424,139.50233 C534.964781,154.807675 526.993247,166.446115 511.36904,166.446115 C507.861565,166.446115 504.832382,165.808392 502.281491,164.851808 L504.832382,154.488814 Z M570.66131,118.298049 L580.06772,111.601961 C584.850641,119.892356 590.749576,123.399831 598.242818,123.399831 C609.402966,123.399831 614.983039,117.022604 614.983039,101.079536 L614.983039,28.5385759 L628.215786,28.5385759 L628.215786,102.354981 C628.215786,120.370648 619.92539,135.038271 599.358833,135.038271 C586.126086,135.038271 576.719676,129.298766 570.66131,118.298049 Z M647.969247,119.573495 L655.940781,110.326515 C663.434023,118.138619 673.797018,123.399831 684.797735,123.399831 C698.508773,123.399831 706.639738,116.544312 706.639738,106.340748 C706.639738,95.6588925 698.987065,92.3108482 689.102363,87.8467892 L674.115879,81.3101313 C664.390607,77.1649336 652.911598,69.6716916 652.911598,54.3663462 C652.911598,38.4232781 666.941498,26.6254077 685.913749,26.6254077 C698.349342,26.6254077 709.350059,31.8866202 716.683871,39.5392929 L709.668921,48.1485496 C703.291694,42.0901838 695.47959,38.2638474 685.913749,38.2638474 C674.115879,38.2638474 666.303776,44.1627826 666.303776,53.5691928 C666.303776,63.6133257 675.550755,67.439662 683.68172,70.947137 L698.668204,77.3243642 C710.784936,82.5855767 720.191346,89.7599573 720.191346,105.224733 C720.191346,121.805524 706.480307,135.038271 684.478873,135.038271 C669.811251,135.038271 657.056796,128.979905 647.969247,119.573495 Z M778.527032,135.038271 C752.220969,135.038271 733.727011,113.993421 733.727011,80.3535472 C733.727011,46.8731042 752.220969,26.6254077 778.527032,26.6254077 C804.673663,26.6254077 823.167622,47.0325349 823.167622,80.3535472 C823.167622,113.993421 804.673663,135.038271 778.527032,135.038271 Z M778.527032,123.399831 C797.180421,123.399831 809.456584,106.500179 809.456584,80.3535472 C809.456584,54.3663462 797.180421,38.2638474 778.527032,38.2638474 C759.714211,38.2638474 747.438049,54.3663462 747.438049,80.3535472 C747.438049,106.500179 759.714211,123.399831 778.527032,123.399831 Z M844.834252,133.125103 L844.834252,28.5385759 L858.545291,28.5385759 L896.489793,94.2240164 L907.809371,115.906589 L908.447094,115.906589 C907.809371,105.384164 906.693356,93.5862937 906.693356,82.5855767 L906.693356,28.5385759 L919.28838,28.5385759 L919.28838,133.125103 L905.577341,133.125103 L867.79227,67.2802313 L856.472692,45.7570894 L855.834969,45.7570894 C856.472692,56.2795144 857.429276,67.439662 857.429276,78.440379 L857.429276,133.125103 L844.834252,133.125103 Z" id="A11yJSON"></path>
        </g>
    </g>
</svg>