<svg width="199" height="176" viewBox="0 0 199 176" fill="none" xmlns="http://www.w3.org/2000/svg">
<path d="M113.569 91.0276C113.594 85.4723 114.073 79.2481 115.008 72.3615C123.188 71.49 132.852 69.9827 144.022 67.843C146.89 67.2936 148.77 64.5229 148.22 61.6547C147.671 58.7864 144.9 56.9066 142.032 57.4561C123.821 60.9446 109.875 62.6805 100.296 62.6805C90.6964 62.6805 75.9999 60.9394 56.3269 57.4432C53.4515 56.9322 50.7063 58.8489 50.1953 61.7243C49.6843 64.5997 51.601 67.3449 54.4764 67.8559C66.2305 69.9447 76.2971 71.4292 84.6999 72.3065C85.6667 79.4105 86.148 85.8102 86.148 91.4987C86.148 94.5155 85.6144 99.3597 84.5485 105.983C84.269 106.694 84.1544 107.435 84.1894 108.162C82.9943 115.256 81.2527 124.172 78.9658 134.859C78.3547 137.714 80.1743 140.525 83.0301 141.136C85.8859 141.747 88.6964 139.927 89.3075 137.072C91.6672 126.045 93.4629 116.857 94.696 109.457C95.7793 107.956 97.4769 107.255 100.349 107.255C103.316 107.255 104.498 108.088 105.166 110.405C105.176 110.44 105.186 110.474 105.197 110.509C106.422 117.721 108.159 126.561 110.408 137.072C111.019 139.927 113.83 141.747 116.686 141.136C119.541 140.525 121.361 137.714 120.75 134.859C116.024 112.776 113.627 98.2552 113.569 91.7389V91.0276ZM100.349 57.3616C107.65 57.3616 113.569 51.4429 113.569 44.1418C113.569 36.8408 107.65 30.9221 100.349 30.9221C93.0479 30.9221 87.1292 36.8408 87.1292 44.1418C87.1292 51.4429 93.0479 57.3616 100.349 57.3616Z" fill="white"/>
<path d="M166.648 142.732C150.551 162.812 125.816 175.669 98.0783 175.669C70.3406 175.669 45.6059 162.812 29.5089 142.732L39.264 142.731C53.9484 158.457 74.8653 168.288 98.0783 168.288C121.291 168.288 142.208 158.457 156.893 142.731L166.648 142.732ZM98.0783 0C125.566 0 150.105 12.6269 166.211 32.3969L156.383 32.3972C141.727 16.9871 121.024 7.38105 98.0783 7.38105C75.1323 7.38105 54.4299 16.9871 39.7732 32.3972L29.9457 32.3969C46.0514 12.6269 70.5903 0 98.0783 0Z" fill="white" fill-opacity="0.5"/>
<path d="M155.002 130.481H160.78C172.336 130.481 174.941 127.649 174.941 120.285C174.941 113.374 174.261 107.483 174.261 99.7795C174.261 92.4156 176.641 88.7903 184.458 87.4308V86.9777C176.641 85.6182 174.261 81.9929 174.261 74.629C174.261 67.605 174.941 60.581 174.941 54.1234C174.941 46.7595 172.336 43.9273 160.78 43.9273H155.002V38.4893H161.913C176.074 38.4893 182.758 41.888 182.758 53.557C182.758 61.374 181.739 68.2847 181.739 75.422C181.739 79.8404 184.797 84.1454 198.166 84.2587V90.1498C184.797 90.2631 181.739 94.5681 181.739 98.9865C181.739 106.577 182.758 112.581 182.758 120.852C182.758 132.52 176.074 135.919 161.913 135.919H155.002V130.481Z" fill="white"/>
<path d="M43.1637 130.481H37.3859C25.8302 130.481 23.2246 127.649 23.2246 120.285C23.2246 113.374 23.9043 107.483 23.9043 99.7795C23.9043 92.4156 21.5252 88.7903 13.7082 87.4308V86.9777C21.5252 85.6182 23.9043 81.9929 23.9043 74.629C23.9043 67.605 23.2246 60.581 23.2246 54.1234C23.2246 46.7595 25.8302 43.9273 37.3859 43.9273H43.1637V38.4893H36.253C22.0917 38.4893 15.4075 41.888 15.4075 53.557C15.4075 61.374 16.4271 68.2847 16.4271 75.422C16.4271 79.8404 13.3683 84.1454 3.8147e-06 84.2587V90.1498C13.3683 90.2631 16.4271 94.5681 16.4271 98.9865C16.4271 106.577 15.4075 112.581 15.4075 120.852C15.4075 132.52 22.0917 135.919 36.253 135.919H43.1637V130.481Z" fill="white"/>
</svg>
