<?xml version="1.0" encoding="UTF-8"?>
<svg width="35px" height="32px" viewBox="0 0 35 32" version="1.1" xmlns="http://www.w3.org/2000/svg" xmlns:xlink="http://www.w3.org/1999/xlink">
    <!-- Generator: Sketch 64 (93537) - https://sketch.com -->
    <title>sozialhelden</title>
    <desc>Created with Sketch.</desc>
    <g id="sozialhelden" stroke="none" stroke-width="1" fill="none" fill-rule="evenodd">
        <g transform="translate(0.000000, 0.000000)" fill-rule="nonzero">
            <path d="M23.1601972,14.6265621 L20.4447959,17.339321 L21.0863705,21.1738244 C21.1360715,21.469803 21.0137784,21.7670208 20.7698109,21.9415512 C20.6345255,22.0390404 20.4742865,22.088611 20.3134288,22.088611 C20.1857738,22.088611 20.0585313,22.0574228 19.9407752,21.9950463 L16.6029784,20.1960415 L13.2643566,21.9950463 C13.0005913,22.1371491 12.6788759,22.1162881 12.4353208,21.9415512 C12.1930033,21.7670208 12.0690603,21.469803 12.1183488,21.1738244 L12.7603359,17.339321 L10.0449346,14.6265621 C9.8352009,14.4167126 9.76178381,14.106689 9.85396762,13.8245488 C9.94738881,13.5419956 10.1907376,13.3379293 10.4837873,13.2933156 L14.2214598,12.7366776 L15.8968544,9.25929006 C16.0271904,8.98665098 16.3018858,8.8145992 16.6029784,8.8145992 C16.9042772,8.8145992 17.1789726,8.98665098 17.3088961,9.25929006 L18.9842907,12.7366776 L22.7211383,13.2933156 C23.0150128,13.3379293 23.2579492,13.5419956 23.3507518,13.8245488 C23.4437605,14.106689 23.3707559,14.4167126 23.1601972,14.6265621" id="Fill-16" fill="#FFFFFE"></path>
            <path d="M14.5571987,0.0296310616 C14.5879265,0.0242608979 14.5904013,0.0478070002 14.6155611,0.048839724 C14.9962576,1.40046861 15.3691175,3.16539355 16.2552783,4.0696465 C16.4627435,4.28094178 16.72754,4.52776278 17.0857576,4.39805267 C17.4435629,4.26751638 17.5730739,3.79824669 17.6838182,3.41221455 C17.9562451,3.66709078 17.6916549,4.46228808 18.0700829,4.61079376 C18.3839616,4.61575084 18.5945201,4.48418183 18.8028102,4.33980704 C18.9189165,4.2607004 19.0451279,4.18448538 19.1309187,4.10827038 C19.5388372,3.75094794 19.8257001,3.30130001 20.0189355,2.73598701 C20.1857738,2.2477152 20.2847632,1.72701587 20.3666356,1.1115125 C20.3755034,1.04273309 20.3637484,0.950201041 20.4249981,0.899184487 C20.5153258,0.904761195 20.512851,1.03178622 20.5206878,1.09271692 C20.5553341,1.34841933 20.5297618,1.66959642 20.5206878,1.96227035 C20.5099639,2.29831867 20.4161303,2.83636776 20.5592524,3.04477142 C20.6798956,3.22074755 21.0570862,3.23252061 21.2740378,3.14164091 C21.6982485,2.96359933 22.045536,2.47181627 22.3156944,2.09797025 C22.5349145,1.79414292 22.7597029,1.50828497 22.9725299,1.18917332 C23.0387291,1.09023839 23.081212,0.927068029 23.2224781,0.918599695 C23.2086608,1.20259873 23.0659512,1.47647708 22.9529383,1.75056198 C22.6450402,2.48772021 22.2169114,3.4434028 22.2969278,4.4951287 C22.3284806,4.92536143 22.4901632,5.30333833 22.6831924,5.55759493 C22.7739326,5.67924979 22.9162298,5.82362457 23.0880176,5.88703382 C23.3460085,5.98163131 23.7557832,5.9801855 23.9950074,5.94507288 C24.3565247,5.88992544 24.7318593,5.71188385 25.0954389,5.55759493 C25.8333219,5.24488617 26.3262063,4.94126537 26.9090061,4.43667653 C27.0170695,4.3433183 27.1451368,4.22889251 27.2956832,4.08844207 C27.4188012,3.97484246 27.6025502,3.74970868 27.6811229,3.74124034 C27.8098091,3.72740184 27.9156039,3.84203418 27.9314835,3.91515102 C27.9729353,4.0913337 27.8129025,4.2685491 27.6811229,4.45650482 C27.3604387,4.91255565 26.9861353,5.40578453 26.735156,5.86741206 C26.4823207,6.33523594 26.2230925,6.92244268 26.0985309,7.58772335 C25.9799498,8.22284846 25.9182878,8.74230853 26.0022224,9.42390623 C26.0496549,9.80787293 26.1690607,10.2213755 26.3686892,10.4291596 C26.5780104,10.645825 27.0768755,10.7674799 27.4691207,10.6228985 C27.6114179,10.56961 27.7477345,10.4667507 27.8747708,10.3901226 C28.001601,10.3134945 28.1183258,10.2036127 28.2604168,10.1972098 C28.3078492,10.318245 28.1694703,10.3930142 28.1059522,10.4677834 C28.0327413,10.553293 27.9556121,10.6379763 27.9131292,10.7389767 C28.1162636,10.6972547 28.2076225,10.5433788 28.4530336,10.5458573 C28.446228,10.6724693 28.3086741,10.7075819 28.2214398,10.777394 C27.9832467,10.9672086 27.6489514,11.3720364 27.7974354,11.8206516 C27.9007555,12.1341865 28.2237082,12.3504389 28.6466815,12.3812141 C29.3014547,12.4295456 30.3476482,12.2717453 30.9343664,12.2267185 C31.3472344,12.1947041 32.0319107,12.1205546 32.3855914,12.0437199 C32.7415405,11.9677114 33.0943962,11.8642325 33.4276604,11.774179 C33.6004793,11.7270868 33.7897964,11.6923873 33.9481793,11.638066 C34.1003754,11.5862233 34.2515404,11.4401961 34.4126044,11.522401 C34.3829075,11.6593401 34.248447,11.7597209 34.1414148,11.8309788 C33.8069133,12.0565257 33.3635235,12.2000743 32.9638541,12.3727457 C32.5062345,12.5712353 31.6138869,12.9539627 31.2929965,13.0603332 C30.6270869,13.2805099 29.8073315,13.675217 29.2253566,14.0244841 C28.903435,14.2178101 28.3556941,14.5086251 28.5111898,15.0483265 C28.606467,15.3802439 28.9813892,15.4531542 29.3987942,15.339348 C29.3045481,15.4816573 29.0851217,15.5010726 28.8970421,15.5708847 C28.5646028,15.6939855 28.2554674,15.8290657 27.970873,16.0343712 C27.7407228,16.2004331 27.5501682,16.3852907 27.7009208,16.7500487 C27.9248842,16.8301881 28.2247394,17.0191766 27.9521063,17.2517459 C27.8780704,17.3149486 27.7757815,17.2852062 27.7586646,17.3876524 C27.7225747,17.598328 27.9778847,17.5074484 27.970873,17.7553021 C27.8275447,17.8798486 27.6489514,17.8932739 27.5462499,18.0262888 C27.3674504,18.2559665 27.443961,18.6198984 27.5650167,18.8177682 C27.6539008,18.9623496 27.8327004,19.0961907 28.028823,19.2432505 C28.200817,19.3713082 28.4035389,19.5497629 28.5299565,19.6113132 C28.7978464,19.7379252 29.2352556,19.7486656 29.5149005,19.8036064 C29.5415039,19.9651244 29.3899264,19.9496336 29.3410504,20.0355562 C29.6561665,20.1212722 30.0859452,20.2049229 30.4602487,20.1128039 C30.4396259,20.2829968 30.2459779,20.3088149 30.1133736,20.3652016 C29.5219122,20.6116095 28.804652,20.7340905 27.9314835,20.6936078 C27.7091699,20.6826608 27.4680896,20.6173927 27.2758853,20.7124034 C27.1880322,20.9102732 27.4138518,21.0620836 27.6039937,21.1961312 C27.7530965,21.2996101 27.9828342,21.4138293 28.1251314,21.447083 C28.3136236,21.4919033 28.5563537,21.4780647 28.6852461,21.6017851 C28.858065,21.7659881 28.8619833,22.111331 28.5695522,22.1617279 C28.3191918,22.2063416 28.0597572,21.9946332 27.8547668,21.8917739 C27.6103868,21.7688798 27.2785663,21.553247 26.8904456,21.6017851 C26.4023044,21.6620961 25.8426022,22.2265829 25.7710411,22.7034948 C25.7434065,22.8823625 25.8056874,23.0383039 25.7514495,23.2440224 C25.7087604,23.30454 25.6114208,23.2785154 25.5390349,23.2640573 C25.6163703,23.4602748 25.758255,23.8723316 25.519237,23.9983239 C25.2923864,23.9584607 25.2969234,23.6536007 25.075641,23.6308807 C24.9121024,23.6149768 24.827549,23.7099874 24.7477388,23.7862024 C24.5575968,23.9644505 24.360443,24.3690718 24.3612679,24.790423 C24.3633302,25.1378313 24.5470792,25.8411162 24.2074219,25.8737503 C23.8836444,25.9039058 23.9840773,25.3858915 23.6285406,25.4286463 C23.4456165,25.4511598 23.3765302,25.6864142 23.3963281,25.9507915 C23.4229315,26.3035699 23.5672909,26.5950046 23.6473073,26.9562514 C23.7893983,27.596127 23.8857067,28.3155224 23.8597219,29.2365055 C23.8477607,29.6524865 23.8038342,30.1682288 23.5895635,30.2031349 C23.2897084,30.251673 23.2072172,29.7332456 23.1067842,29.4298314 C23.0189313,29.1642148 22.852093,28.8230029 22.7211383,28.5796931 C22.6328728,28.4165228 22.5093423,28.2709087 22.3932361,28.1157936 C22.1634983,27.8096943 21.943247,27.5102044 21.562963,27.3424901 C21.400043,27.6357836 21.5625505,27.985877 21.562963,28.3093261 C21.5637879,28.4972818 21.5099624,28.7998698 21.2928046,28.8122625 C21.0176967,28.8263075 20.7425888,28.2609945 20.6561794,28.0383393 C20.5227501,27.6975405 20.4396402,27.2885818 20.2890939,26.9946687 C20.2121709,26.8443041 20.0791541,26.6594465 19.9222147,26.6278452 C19.6209159,26.5648491 19.2307328,26.7875042 19.1309187,26.9562514 C19.0777119,27.0463048 19.0183183,27.2241399 19.0152248,27.3044858 C19.0073882,27.5259018 19.1942305,27.7886267 19.2278457,28.0573415 C19.2583674,28.2987922 19.2070167,28.5875418 19.0539956,28.6181104 C18.9560375,28.6381453 18.7248561,28.4745618 18.6295789,28.3671585 C18.424176,28.1345892 18.1668038,27.4647645 17.8768474,27.2844509 C17.5178048,27.0624154 17.2855924,27.3823532 17.1049368,27.6713093 C17.0012042,27.8357189 16.8471521,28.0315234 16.8155993,28.1352088 C16.7753848,28.2636796 16.7873461,28.4520485 16.7768284,28.5995215 C16.7671356,28.7319166 16.7423884,28.9089255 16.7572367,29.0822165 C16.7768284,29.3077634 16.8578759,29.4818806 16.8727244,29.7588571 C16.8886039,30.0310832 16.8094124,30.258489 16.6029784,30.2611739 C16.1393783,30.2665441 16.3115785,29.0227316 16.2750761,28.5796931 C16.2594029,28.3865738 16.1921726,28.1213703 16.1012262,28.0573415 C16.0311087,28.3194468 16.1051445,29.1621493 15.7539385,29.1594642 C15.5994739,29.1584315 15.4835739,28.9149153 15.4639823,28.6375257 C15.4340793,28.2013032 15.5332748,27.6843216 15.5027531,27.2266184 C15.4887296,27.0126381 15.450165,26.7672629 15.3674676,26.6080168 C15.1441229,26.1786103 14.3033322,26.167457 13.8430318,26.4148976 C13.5802976,26.5555545 13.4163465,26.8862327 13.3412796,27.2648292 C13.2839482,27.5546115 13.1843402,27.9935192 12.8778857,27.9997155 C12.4547063,28.0085968 12.6161827,27.4172593 12.2792064,27.3616987 C11.8624201,27.2933324 11.6660912,28.0121081 11.5848375,28.3671585 C11.3194223,29.5211241 11.1637203,30.5899932 10.6778477,31.5450562 C10.5947379,31.7084331 10.5359629,31.9721908 10.3111746,31.9899536 C10.3101435,31.7460242 10.4281058,31.521097 10.4854371,31.2554805 C10.644645,30.5044838 10.5869012,29.6954479 10.5427684,28.773019 C10.5151339,28.1847795 10.5545234,27.6494155 10.4656393,27.0147035 C10.4338802,26.7850257 10.3841793,26.4884275 10.33056,26.2211585 C10.279828,25.9664888 10.2004303,25.6451052 10.0993787,25.5255158 C9.92614735,25.3197972 9.50894852,25.3753578 9.32664316,25.5255158 C9.21692998,25.616189 9.05792834,25.8254188 8.95976392,25.9894154 C8.8646929,26.1496941 8.77972705,26.4477382 8.61268253,26.4733497 C8.1664056,26.5396505 8.20084564,25.6205264 8.26560116,25.2163183 C8.29055473,25.0566593 8.34025562,24.8860532 8.38108873,24.7332102 C8.42790244,24.5613648 8.51513679,24.3789858 8.51678662,24.2701367 C8.51823021,24.0307514 8.32994423,23.8021064 8.16949902,23.7477851 C8.00204205,23.6901592 7.79663916,23.7333269 7.66692188,23.7862024 C7.44213359,23.8762559 7.26993338,24.1621138 7.14557802,24.3849756 C7.0719547,24.5184036 7.03318388,24.6574082 6.99131964,24.790423 C6.94759935,24.9308735 6.93811286,25.0985878 6.83706125,25.1785206 C6.71270589,25.1105674 6.74735216,24.8517668 6.75972582,24.6747579 C6.79994024,24.1175002 7.08309101,23.54186 7.20394048,22.9740685 C7.24662964,22.7722742 7.26766487,22.5516844 7.30045509,22.3358451 C7.3984133,21.7027855 7.47781099,20.6029347 7.20394048,20.0545583 C7.10433246,19.8566885 6.86469577,19.5286954 6.60546743,19.5138241 C6.45945816,19.5059754 6.27756524,19.541088 6.14269227,19.5716566 C5.83850627,19.6429145 5.50008646,19.7684938 5.21631702,19.8814738 C4.94203406,19.9890836 4.59309663,20.2394159 4.32809392,19.9773105 C4.3078836,19.6904199 4.56979288,19.5786792 4.75312939,19.4557851 C5.08000045,19.2372607 5.53143309,18.920008 5.50503593,18.3542818 C5.48296955,17.8629119 5.02803104,17.6237331 4.46399804,17.7740977 C4.30891473,17.8156131 4.11671042,17.9403662 4.00039795,18.0452909 C3.95337802,18.0872195 3.91852553,18.1805777 3.84510842,18.160956 C3.88635399,17.8383331 3.92161893,17.5968823 4.03875633,17.3684438 C4.12104121,17.2071322 4.27323732,17.0865102 4.3472731,16.9043377 C4.44997455,16.6540055 4.52029822,16.1989873 4.3472731,15.9773648 C4.18002236,15.7611125 3.77189756,15.5896802 3.42131032,15.4738087 C3.05999922,15.3540127 2.65373047,15.2641658 2.35985587,15.1266069 C2.17961278,15.0425433 1.95069993,14.8969292 1.9156412,14.6812965 C2.26313503,14.9159313 2.85768976,14.8564464 3.51761869,14.8357919 C3.93646733,14.8227796 4.32376314,14.8514893 4.55968773,14.7975812 C4.7360125,14.7577181 4.99317855,14.6249097 5.00369617,14.4497598 C5.01173905,14.3082766 4.85974916,14.1252779 4.75312939,14.0629015 C4.60567652,13.9769788 4.38295051,13.9610749 4.1736293,13.9081994 C3.61227725,13.7673359 2.93811859,13.6578672 2.32067258,13.5605846 C1.58567673,13.444713 0.737461818,13.451529 0.159405316,13.154311 C0.102898901,13.1251882 -0.00598937398,13.0884233 0.00452824345,12.9994025 C0.0779453377,12.9143061 0.21879892,12.9756498 0.333461573,12.9808135 C0.872541023,13.0033269 1.55309274,12.985564 2.16641419,12.9415699 C2.51411425,12.9174042 2.89604812,12.8351994 3.22766241,12.7490703 C3.57226905,12.6590167 3.91481342,12.5503742 4.1350647,12.4198379 C4.33221847,12.3029336 4.64650962,12.0267832 4.75312939,11.8014429 C4.85871802,11.5767222 4.88511519,11.1710683 4.75312939,10.9703068 C4.66073935,10.8288237 4.49926298,10.7160502 4.3472731,10.6022441 C4.19796418,10.4925688 4.0148339,10.4256483 3.90326467,10.2936662 C4.26808162,10.2213755 4.7442616,10.3256806 5.21631702,10.2936662 C5.68795999,10.2618583 6.24353766,10.0575855 6.52813201,9.81035147 C6.6786783,9.68022827 6.86201481,9.34087524 6.87583207,9.03725444 C6.88552478,8.82038245 6.80715822,8.5423732 6.74116532,8.32178341 C6.59928059,7.85499225 6.42254338,7.52947772 6.16145899,7.16224114 C5.85851036,6.73551967 5.46090319,6.37943651 5.00369617,6.09998145 C4.91646181,6.04627982 4.76488439,6.02252718 4.77251481,5.88703382 C5.05009742,5.86637933 5.30128287,5.99092583 5.52462758,6.09998145 C6.18806238,6.42033238 6.8026212,6.82309465 7.5706135,7.06537165 C7.54215407,6.93669427 7.43285333,6.82495355 7.3390197,6.71755028 C7.24992928,6.61510408 7.1402161,6.51534297 7.0496821,6.40835278 C6.86428331,6.19168733 6.66073648,5.96717318 6.62464662,5.67429272 C6.78529807,5.72179801 6.89583617,5.86142227 7.0496821,5.94507288 C7.47141794,6.17351139 8.09773175,6.25406384 8.78653257,6.25406384 C9.22291058,6.25406384 9.662382,6.27038088 10.0793746,6.21564652 C10.4831686,6.1611187 10.8914996,6.13240898 11.1408291,5.90582938 C11.1214436,5.69308829 11.0125554,5.5704007 10.9671852,5.38389079 C11.1148444,5.40970888 11.1620705,5.53632081 11.3148853,5.55759493 C11.3406638,5.23559165 11.2266198,5.05321263 11.1408291,4.84233044 C11.4289293,5.00508771 11.7104302,5.30437105 12.0092543,5.28743439 C12.3000355,5.27070425 12.532248,4.94333082 12.6854753,4.72666537 C12.8760297,4.45650482 13.0222452,4.19667153 13.0517358,3.85711195 C13.0795765,3.53882647 13.0043034,3.21641011 13.2643566,3.20009308 C13.5714298,3.18026478 13.5258535,3.68278817 13.8430318,3.68278817 C14.0752444,3.68278817 14.279616,3.28209135 14.363757,3.04477142 C14.6502074,2.24337776 14.539463,1.03488439 14.5188402,0.0686680206 C14.5235835,0.0469808212 14.5571987,0.0548295219 14.5571987,0.0296310616 Z M16.6029784,8.8145992 C16.3018858,8.8145992 16.0271904,8.98665098 15.8968544,9.25929006 L15.8968544,9.25929006 L14.2214598,12.7366776 L10.4837873,13.2933156 C10.1907376,13.3379293 9.94738881,13.5419956 9.85396762,13.8245488 C9.76178381,14.106689 9.8352009,14.4167126 10.0449346,14.6265621 L10.0449346,14.6265621 L12.7603359,17.339321 L12.1183488,21.1738244 C12.0690603,21.469803 12.1930033,21.7670208 12.4353208,21.9415512 C12.6788759,22.1162881 13.0005913,22.1371491 13.2643566,21.9950463 L13.2643566,21.9950463 L16.6029784,20.1960415 L19.9407752,21.9950463 C20.0585313,22.0574228 20.1857738,22.088611 20.3134288,22.088611 C20.4742865,22.088611 20.6345255,22.0390404 20.7698109,21.9415512 C21.0137784,21.7670208 21.1360715,21.469803 21.0863705,21.1738244 L21.0863705,21.1738244 L20.4447959,17.339321 L23.1601972,14.6265621 C23.3707559,14.4167126 23.4437605,14.106689 23.3507518,13.8245488 C23.2579492,13.5419956 23.0150128,13.3379293 22.7211383,13.2933156 L22.7211383,13.2933156 L18.9842907,12.7366776 L17.3088961,9.25929006 C17.1789726,8.98665098 16.9042772,8.8145992 16.6029784,8.8145992 Z M16.6029784,10.7131586 L17.8921082,13.3901852 C18.0191446,13.6533232 18.2676491,13.8365284 18.5555432,13.8788701 L18.5555432,13.8788701 L21.4804719,14.3152992 L19.3501388,16.4433298 C19.1488605,16.6440913 19.0568829,16.9316016 19.1043153,17.2125024 L19.1043153,17.2125024 L19.6031802,20.1900516 L17.0199709,18.8000055 C16.8900475,18.7293672 16.7458942,18.6942545 16.6029784,18.6942545 C16.4594439,18.6942545 16.3167342,18.7293672 16.1851608,18.8000055 L16.1851608,18.8000055 L13.6033952,20.1900516 L14.1018478,17.2125024 C14.1486615,16.9316016 14.0564776,16.6440913 13.854993,16.4433298 L13.854993,16.4433298 L11.7250724,14.3152992 L14.6502074,13.8788701 C14.9387201,13.8365284 15.1866059,13.6533232 15.3130235,13.3901852 L15.3130235,13.3901852 L16.6029784,10.7131586 Z" id="Combined-Shape" fill="#C6243C"></path>
        </g>
    </g>
</svg>